<svg width="64" height="64" viewBox="0 0 64 64" fill="none" xmlns="http://www.w3.org/2000/svg">
<g filter="url(#filter0_d_675_1200)">
<rect x="7" y="5" width="50" height="50" rx="18" fill="#072A2F"/>
<rect x="7.5" y="5.5" width="49" height="49" rx="17.5" stroke="#0D3F46"/>
</g>
<g clip-path="url(#clip0_675_1200)">
<path d="M24.5405 33.3514V36.6892C24.5405 37.1146 24.8854 37.4594 25.3108 37.4594H28.6487V39H25.3108C24.0346 39 23 37.9654 23 36.6892V33.3514H24.5405ZM42 33.3514V36.6892C42 37.9654 40.9654 39 39.6892 39H36.3514V37.4594H39.6892C40.1146 37.4594 40.4594 37.1146 40.4594 36.6892V33.3514H42ZM32.5 25.3919C34.7688 25.3919 36.6082 27.2312 36.6082 29.5C36.6082 31.7688 34.7688 33.6082 32.5 33.6082C30.2312 33.6082 28.3919 31.7688 28.3919 29.5C28.3919 27.2312 30.2312 25.3919 32.5 25.3919ZM39.6892 20C40.9654 20 42 21.0346 42 22.3108V25.6487H40.4594V22.3108C40.4594 21.8854 40.1146 21.5405 39.6892 21.5405H36.3514V20H39.6892ZM28.6487 20V21.5405H25.3108C24.8854 21.5405 24.5405 21.8854 24.5405 22.3108V25.6487H23V22.3108C23 21.0346 24.0346 20 25.3108 20H28.6487Z" fill="white"/>
</g>
<defs>
<filter id="filter0_d_675_1200" x="0" y="0" width="64" height="64" filterUnits="userSpaceOnUse" color-interpolation-filters="sRGB">
<feFlood flood-opacity="0" result="BackgroundImageFix"/>
<feColorMatrix in="SourceAlpha" type="matrix" values="0 0 0 0 0 0 0 0 0 0 0 0 0 0 0 0 0 0 127 0" result="hardAlpha"/>
<feOffset dy="2"/>
<feGaussianBlur stdDeviation="3.5"/>
<feColorMatrix type="matrix" values="0 0 0 0 0 0 0 0 0 0 0 0 0 0 0 0 0 0 0.25 0"/>
<feBlend mode="normal" in2="BackgroundImageFix" result="effect1_dropShadow_675_1200"/>
<feBlend mode="normal" in="SourceGraphic" in2="effect1_dropShadow_675_1200" result="shape"/>
</filter>
<clipPath id="clip0_675_1200">
<rect width="19" height="19" fill="white" transform="translate(23 20)"/>
</clipPath>
</defs>
</svg>
